<svg width="1920" height="1080" viewBox="0 0 1920 1080" fill="none" xmlns="http://www.w3.org/2000/svg">
<path d="M588.291 692.664C570.087 692.664 553.659 688.779 539.007 681.009C524.577 673.239 513.144 662.139 504.708 647.709C496.494 633.279 492.387 616.407 492.387 597.093C492.387 578.001 496.605 561.24 505.04 546.81C513.477 532.158 525.021 520.947 539.673 513.177C554.325 505.407 570.753 501.522 588.957 501.522C607.161 501.522 623.589 505.407 638.241 513.177C652.893 520.947 664.437 532.158 672.873 546.81C681.309 561.24 685.527 578.001 685.527 597.093C685.527 616.185 681.198 633.057 672.54 647.709C664.104 662.139 652.449 673.239 637.575 681.009C622.923 688.779 606.495 692.664 588.291 692.664ZM588.291 643.38C599.169 643.38 608.382 639.384 615.93 631.392C623.7 623.4 627.585 611.967 627.585 597.093C627.585 582.219 623.811 570.786 616.263 562.794C608.937 554.802 599.835 550.806 588.957 550.806C577.857 550.806 568.644 554.802 561.318 562.794C553.992 570.564 550.329 581.997 550.329 597.093C550.329 611.967 553.881 623.4 560.985 631.392C568.311 639.384 577.413 643.38 588.291 643.38ZM704.414 597.093C704.414 577.779 708.299 560.907 716.069 546.477C724.061 532.047 735.05 520.947 749.036 513.177C763.244 505.407 779.45 501.522 797.654 501.522C820.964 501.522 840.389 507.627 855.929 519.837C871.691 532.047 882.014 549.252 886.898 571.452H826.292C821.186 557.244 811.307 550.14 796.655 550.14C786.221 550.14 777.896 554.247 771.68 562.461C765.464 570.453 762.356 581.997 762.356 597.093C762.356 612.189 765.464 623.844 771.68 632.058C777.896 640.05 786.221 644.046 796.655 644.046C811.307 644.046 821.186 636.942 826.292 622.734H886.898C882.014 644.49 871.691 661.584 855.929 674.016C840.167 686.448 820.742 692.664 797.654 692.664C779.45 692.664 763.244 688.779 749.036 681.009C735.05 673.239 724.061 662.139 716.069 647.709C708.299 633.279 704.414 616.407 704.414 597.093ZM1001.94 692.664C983.735 692.664 967.307 688.779 952.655 681.009C938.225 673.239 926.792 662.139 918.356 647.709C910.142 633.279 906.035 616.407 906.035 597.093C906.035 578.001 910.253 561.24 918.689 546.81C927.125 532.158 938.669 520.947 953.321 513.177C967.973 505.407 984.401 501.522 1002.6 501.522C1020.81 501.522 1037.24 505.407 1051.89 513.177C1066.54 520.947 1078.08 532.158 1086.52 546.81C1094.96 561.24 1099.17 578.001 1099.17 597.093C1099.17 616.185 1094.85 633.057 1086.19 647.709C1077.75 662.139 1066.1 673.239 1051.22 681.009C1036.57 688.779 1020.14 692.664 1001.94 692.664ZM1001.94 643.38C1012.82 643.38 1022.03 639.384 1029.58 631.392C1037.35 623.4 1041.23 611.967 1041.23 597.093C1041.23 582.219 1037.46 570.786 1029.91 562.794C1022.58 554.802 1013.48 550.806 1002.6 550.806C991.505 550.806 982.292 554.802 974.966 562.794C967.64 570.564 963.977 581.997 963.977 597.093C963.977 611.967 967.529 623.4 974.633 631.392C981.959 639.384 991.061 643.38 1001.94 643.38ZM1366.48 502.188C1389.57 502.188 1407.88 509.181 1421.43 523.167C1435.19 537.153 1442.07 556.578 1442.07 581.442V690H1385.46V589.101C1385.46 577.113 1382.24 567.9 1375.8 561.462C1369.59 554.802 1360.93 551.472 1349.83 551.472C1338.73 551.472 1329.96 554.802 1323.52 561.462C1317.31 567.9 1314.2 577.113 1314.2 589.101V690H1257.59V589.101C1257.59 577.113 1254.37 567.9 1247.93 561.462C1241.72 554.802 1233.06 551.472 1221.96 551.472C1210.86 551.472 1202.09 554.802 1195.65 561.462C1189.44 567.9 1186.33 577.113 1186.33 589.101V690H1129.38V504.186H1186.33V527.496C1192.1 519.726 1199.65 513.621 1208.97 509.181C1218.3 504.519 1228.84 502.188 1240.61 502.188C1254.59 502.188 1267.02 505.185 1277.9 511.179C1289 517.173 1297.66 525.72 1303.88 536.82C1310.31 526.608 1319.08 518.283 1330.18 511.845C1341.28 505.407 1353.38 502.188 1366.48 502.188ZM1566.48 692.664C1548.27 692.664 1531.85 688.779 1517.19 681.009C1502.76 673.239 1491.33 662.139 1482.9 647.709C1474.68 633.279 1470.57 616.407 1470.57 597.093C1470.57 578.001 1474.79 561.24 1483.23 546.81C1491.66 532.158 1503.21 520.947 1517.86 513.177C1532.51 505.407 1548.94 501.522 1567.14 501.522C1585.35 501.522 1601.78 505.407 1616.43 513.177C1631.08 520.947 1642.62 532.158 1651.06 546.81C1659.5 561.24 1663.71 578.001 1663.71 597.093C1663.71 616.185 1659.39 633.057 1650.73 647.709C1642.29 662.139 1630.64 673.239 1615.76 681.009C1601.11 688.779 1584.68 692.664 1566.48 692.664ZM1566.48 643.38C1577.36 643.38 1586.57 639.384 1594.12 631.392C1601.89 623.4 1605.77 611.967 1605.77 597.093C1605.77 582.219 1602 570.786 1594.45 562.794C1587.12 554.802 1578.02 550.806 1567.14 550.806C1556.04 550.806 1546.83 554.802 1539.51 562.794C1532.18 570.564 1528.52 581.997 1528.52 597.093C1528.52 611.967 1532.07 623.4 1539.17 631.392C1546.5 639.384 1555.6 643.38 1566.48 643.38Z" fill="#D4775C"/>
<path d="M618.276 346.235C618.276 424.727 561.682 490.222 486.471 505.543C480.634 463.356 461.351 425.381 432.906 395.974C462.533 352.044 513.29 323 570.992 323H594.634C607.711 323 618.276 333.383 618.276 346.235ZM240 392.706C240 379.854 250.565 369.471 263.642 369.471H287.285C378.677 369.471 452.78 442.299 452.78 532.118V671.531C452.78 684.383 428.069 692 414.992 692C401.915 692 383.032 684.383 383.032 671.531V532.118C291.64 532.118 240 482.525 240 392.706Z" fill="url(#paint0_linear_359_6)"/>
<defs>
<linearGradient id="paint0_linear_359_6" x1="886.508" y1="276.529" x2="886.508" y2="648.295" gradientUnits="userSpaceOnUse">
<stop stop-color="#B4E7CE"/>
<stop offset="0.5" stop-color="#8FB996"/>
<stop offset="1" stop-color="#D4775C"/>
</linearGradient>
</defs>
</svg>
