<svg width="1920" height="1080" viewBox="0 0 1920 1080" fill="none" xmlns="http://www.w3.org/2000/svg">
<g clip-path="url(#clip0_350_2)">
<path d="M602.404 693.664C584.2 693.664 567.772 689.779 553.12 682.009C538.69 674.239 527.257 663.139 518.821 648.709C510.607 634.279 506.5 617.407 506.5 598.093C506.5 579.001 510.718 562.24 519.154 547.81C527.59 533.158 539.134 521.947 553.786 514.177C568.438 506.407 584.866 502.522 603.07 502.522C621.274 502.522 637.702 506.407 652.354 514.177C667.006 521.947 678.55 533.158 686.986 547.81C695.422 562.24 699.64 579.001 699.64 598.093C699.64 617.185 695.311 634.057 686.653 648.709C678.217 663.139 666.562 674.239 651.688 682.009C637.036 689.779 620.608 693.664 602.404 693.664ZM602.404 644.38C613.282 644.38 622.495 640.384 630.043 632.392C637.813 624.4 641.698 612.967 641.698 598.093C641.698 583.219 637.924 571.786 630.376 563.794C623.05 555.802 613.948 551.806 603.07 551.806C591.97 551.806 582.757 555.802 575.431 563.794C568.105 571.564 564.442 582.997 564.442 598.093C564.442 612.967 567.994 624.4 575.098 632.392C582.424 640.384 591.526 644.38 602.404 644.38ZM718.528 598.093C718.528 578.779 722.413 561.907 730.183 547.477C738.175 533.047 749.164 521.947 763.15 514.177C777.358 506.407 793.564 502.522 811.768 502.522C835.078 502.522 854.503 508.627 870.043 520.837C885.805 533.047 896.128 550.252 901.012 572.452H840.406C835.3 558.244 825.421 551.14 810.769 551.14C800.335 551.14 792.01 555.247 785.794 563.461C779.578 571.453 776.47 582.997 776.47 598.093C776.47 613.189 779.578 624.844 785.794 633.058C792.01 641.05 800.335 645.046 810.769 645.046C825.421 645.046 835.3 637.942 840.406 623.734H901.012C896.128 645.49 885.805 662.584 870.043 675.016C854.281 687.448 834.856 693.664 811.768 693.664C793.564 693.664 777.358 689.779 763.15 682.009C749.164 674.239 738.175 663.139 730.183 648.709C722.413 634.279 718.528 617.407 718.528 598.093ZM1016.05 693.664C997.849 693.664 981.421 689.779 966.769 682.009C952.339 674.239 940.906 663.139 932.47 648.709C924.256 634.279 920.149 617.407 920.149 598.093C920.149 579.001 924.367 562.24 932.803 547.81C941.239 533.158 952.783 521.947 967.435 514.177C982.087 506.407 998.515 502.522 1016.72 502.522C1034.92 502.522 1051.35 506.407 1066 514.177C1080.65 521.947 1092.2 533.158 1100.63 547.81C1109.07 562.24 1113.29 579.001 1113.29 598.093C1113.29 617.185 1108.96 634.057 1100.3 648.709C1091.87 663.139 1080.21 674.239 1065.34 682.009C1050.68 689.779 1034.26 693.664 1016.05 693.664ZM1016.05 644.38C1026.93 644.38 1036.14 640.384 1043.69 632.392C1051.46 624.4 1055.35 612.967 1055.35 598.093C1055.35 583.219 1051.57 571.786 1044.02 563.794C1036.7 555.802 1027.6 551.806 1016.72 551.806C1005.62 551.806 996.406 555.802 989.08 563.794C981.754 571.564 978.091 582.997 978.091 598.093C978.091 612.967 981.643 624.4 988.747 632.392C996.073 640.384 1005.17 644.38 1016.05 644.38ZM1380.59 503.188C1403.68 503.188 1422 510.181 1435.54 524.167C1449.3 538.153 1456.19 557.578 1456.19 582.442V691H1399.58V590.101C1399.58 578.113 1396.36 568.9 1389.92 562.462C1383.7 555.802 1375.04 552.472 1363.94 552.472C1352.84 552.472 1344.08 555.802 1337.64 562.462C1331.42 568.9 1328.31 578.113 1328.31 590.101V691H1271.7V590.101C1271.7 578.113 1268.48 568.9 1262.05 562.462C1255.83 555.802 1247.17 552.472 1236.07 552.472C1224.97 552.472 1216.2 555.802 1209.77 562.462C1203.55 568.9 1200.44 578.113 1200.44 590.101V691H1143.5V505.186H1200.44V528.496C1206.21 520.726 1213.76 514.621 1223.09 510.181C1232.41 505.519 1242.95 503.188 1254.72 503.188C1268.71 503.188 1281.14 506.185 1292.02 512.179C1303.12 518.173 1311.77 526.72 1317.99 537.82C1324.43 527.608 1333.2 519.283 1344.3 512.845C1355.4 506.407 1367.5 503.188 1380.59 503.188ZM1580.59 693.664C1562.39 693.664 1545.96 689.779 1531.31 682.009C1516.88 674.239 1505.44 663.139 1497.01 648.709C1488.79 634.279 1484.69 617.407 1484.69 598.093C1484.69 579.001 1488.91 562.24 1497.34 547.81C1505.78 533.158 1517.32 521.947 1531.97 514.177C1546.63 506.407 1563.05 502.522 1581.26 502.522C1599.46 502.522 1615.89 506.407 1630.54 514.177C1645.19 521.947 1656.74 533.158 1665.17 547.81C1673.61 562.24 1677.83 579.001 1677.83 598.093C1677.83 617.185 1673.5 634.057 1664.84 648.709C1656.4 663.139 1644.75 674.239 1629.88 682.009C1615.22 689.779 1598.8 693.664 1580.59 693.664ZM1580.59 644.38C1591.47 644.38 1600.68 640.384 1608.23 632.392C1616 624.4 1619.89 612.967 1619.89 598.093C1619.89 583.219 1616.11 571.786 1608.56 563.794C1601.24 555.802 1592.14 551.806 1581.26 551.806C1570.16 551.806 1560.94 555.802 1553.62 563.794C1546.29 571.564 1542.63 582.997 1542.63 598.093C1542.63 612.967 1546.18 624.4 1553.29 632.392C1560.61 640.384 1569.71 644.38 1580.59 644.38Z" fill="#D4775C"/>
<path d="M638 354.235C638 432.727 578.306 498.222 498.973 513.543C492.817 471.356 472.477 433.381 442.474 403.974C473.724 360.044 527.262 331 588.125 331H613.062C626.856 331 638 341.383 638 354.235ZM239 400.706C239 387.854 250.144 377.471 263.937 377.471H288.875C385.274 377.471 463.437 450.299 463.437 540.118V679.531C463.437 692.383 437.372 700 423.579 700C409.785 700 389.868 692.383 389.868 679.531V540.118C293.469 540.118 239 490.525 239 400.706Z" fill="url(#paint0_linear_350_2)"/>
</g>
<defs>
<linearGradient id="paint0_linear_350_2" x1="920.927" y1="284.529" x2="920.927" y2="656.295" gradientUnits="userSpaceOnUse">
<stop stop-color="#B4E7CE"/>
<stop offset="0.5" stop-color="#8FB996"/>
<stop offset="1" stop-color="#D4775C"/>
</linearGradient>
<clipPath id="clip0_350_2">
<rect width="1920" height="1080" fill="white"/>
</clipPath>
</defs>
</svg>
